<?xml version="1.0" standalone="no"?>
<!DOCTYPE svg PUBLIC "-//W3C//DTD SVG 20010904//EN"
 "http://www.w3.org/TR/2001/REC-SVG-20010904/DTD/svg10.dtd">
<svg version="1.0" xmlns="http://www.w3.org/2000/svg"
 width="310.000000pt" height="310.000000pt" viewBox="0 0 310.000000 310.000000"
 preserveAspectRatio="xMidYMid meet">
<metadata>
Created by potrace 1.11, written by Peter Selinger 2001-2013
</metadata>
<g transform="translate(0.000000,310.000000) scale(0.100000,-0.100000)"
fill="#000000" stroke="none">
<path d="M2104 2754 c-17 -36 -46 -54 -90 -54 -32 0 -30 -10 7 -46 28 -27 30
-32 24 -82 -3 -30 -3 -52 2 -49 4 2 24 12 45 21 35 17 38 17 78 -4 l42 -21 -2
43 c-3 62 -3 61 30 95 l31 32 -47 13 c-38 11 -51 20 -67 51 -10 20 -23 37 -28
37 -4 0 -16 -16 -25 -36z"/>
<path d="M1493 2760 c-80 -32 -156 -112 -182 -191 -35 -110 -10 -226 68 -311
30 -34 77 -37 109 -8 30 28 28 54 -10 112 -42 66 -47 128 -16 182 32 54 68 78
125 83 131 13 221 -113 164 -229 -13 -28 -110 -133 -286 -308 -327 -326 -307
-304 -270 -290 39 15 109 19 154 9 l35 -8 241 242 c273 275 287 294 291 417 2
64 -2 84 -26 135 -54 116 -140 174 -269 181 -60 3 -87 0 -128 -16z"/>
<path d="M2430 2513 c-40 -6 -112 -34 -150 -60 -19 -12 -200 -187 -401 -388
l-365 -365 49 -50 c27 -28 51 -49 53 -48 2 2 167 166 366 364 200 199 378 369
396 378 86 44 199 26 266 -43 87 -90 91 -221 9 -312 -44 -49 -84 -69 -150 -76
-71 -8 -129 16 -193 78 -54 53 -84 61 -119 32 -47 -40 -28 -101 50 -165 58
-47 96 -65 166 -81 165 -37 337 46 414 200 31 63 34 75 34 163 0 88 -3 101
-33 160 -50 100 -104 152 -200 189 -51 20 -140 31 -192 24z"/>
<path d="M908 2056 c-26 -53 -29 -55 -83 -66 -62 -13 -61 -11 -5 -73 27 -30
29 -37 19 -82 -3 -17 -3 -38 0 -47 5 -15 11 -14 55 7 l49 24 44 -25 c44 -24
66 -25 58 -1 -2 7 -6 31 -9 54 -4 33 -1 46 17 65 66 73 66 65 0 78 -59 12 -60
13 -87 66 -15 30 -28 54 -30 54 -1 0 -14 -24 -28 -54z"/>
<path d="M2000 1713 c-63 -22 -91 -43 -207 -157 l-101 -101 -5 -70 c-5 -82
-10 -105 -32 -147 -8 -17 -15 -34 -15 -37 0 -3 82 76 183 176 100 100 195 187
210 193 141 52 273 -89 208 -224 -46 -94 -153 -119 -247 -58 -57 36 -83 40
-112 15 -35 -31 -36 -68 -3 -105 104 -119 319 -119 437 0 59 60 89 134 89 222
-1 90 -23 147 -84 213 -76 82 -214 116 -321 80z"/>
<path d="M1230 1613 c-27 -5 -961 -928 -985 -974 -45 -84 -26 -149 70 -244 95
-96 160 -115 244 -70 41 21 959 947 970 978 13 35 14 98 2 130 -14 36 -136
156 -176 173 -33 14 -74 16 -125 7z m83 -114 c28 -15 101 -90 110 -113 11 -29
-16 -66 -146 -193 -96 -95 -130 -123 -150 -123 -36 0 -137 102 -137 137 0 32
263 299 298 303 2 0 13 -5 25 -11z"/>
<path d="M1556 932 c-18 -35 -26 -42 -63 -48 -37 -7 -37 -7 -9 -41 21 -24 24
-37 19 -66 -6 -42 -4 -43 37 -22 27 14 33 14 60 0 40 -21 42 -20 36 19 -5 28
0 41 20 66 30 35 30 37 -11 43 -22 3 -36 13 -52 42 l-21 38 -16 -31z"/>
</g>
</svg>
